<?xml version="1.0" standalone="no"?>
<!DOCTYPE svg PUBLIC "-//W3C//DTD SVG 20010904//EN"
 "http://www.w3.org/TR/2001/REC-SVG-20010904/DTD/svg10.dtd">
<svg version="1.0" xmlns="http://www.w3.org/2000/svg"
 width="409.000000pt" height="174.000000pt" viewBox="0 0 409.000000 174.000000"
 preserveAspectRatio="xMidYMid meet">

<g transform="translate(0.000000,174.000000) scale(0.100000,-0.100000)"
fill="#000000" stroke="none">
<path d="M30 969 l0 -771 33 43 c17 23 49 51 69 62 49 25 48 48 -2 69 -24 10
-45 27 -52 43 -11 24 -10 29 12 45 13 10 37 21 52 24 29 6 39 26 13 26 -11 0
-15 13 -15 53 l0 52 368 165 367 165 33 62 c62 117 174 217 319 285 77 37 89
34 215 -39 191 -110 295 -279 301 -487 2 -67 1 -71 -20 -74 l-23 -3 0 -245 0
-244 -175 0 c-135 0 -174 -3 -173 -12 2 -10 -136 -14 -659 -16 l-663 -2 0 -85
0 -85 2015 0 2015 0 0 870 0 870 -2015 0 -2015 0 0 -771z m380 611 c11 -11 25
-20 30 -20 6 0 18 9 27 20 23 26 29 25 45 -7 14 -28 35 -33 71 -18 14 6 17 2
17 -23 0 -35 21 -56 49 -47 26 8 34 -8 20 -39 -14 -30 1 -56 32 -56 25 0 24
-22 -1 -38 -11 -7 -20 -21 -20 -32 0 -10 9 -24 20 -30 27 -15 25 -26 -7 -42
-27 -13 -29 -21 -21 -73 2 -16 -2 -19 -23 -17 -31 4 -52 -18 -47 -50 2 -18 -1
-22 -17 -20 -52 8 -60 6 -73 -20 -16 -33 -27 -35 -42 -8 -6 11 -20 20 -30 20
-11 0 -25 -9 -32 -20 -17 -27 -27 -25 -38 5 -12 32 -37 42 -62 26 -24 -15 -38
-7 -31 19 7 28 -14 50 -49 50 -25 0 -29 3 -23 18 15 35 10 56 -17 70 -33 16
-34 22 -8 45 25 21 25 43 0 59 -25 16 -26 38 -1 38 31 0 46 26 32 56 -14 32
-6 46 23 38 28 -7 49 16 44 48 -2 18 1 22 17 20 52 -8 60 -6 73 21 16 32 17
32 42 7z m1724 -218 c3 -5 2 -18 -1 -30 -5 -21 -11 -22 -114 -22 l-109 0 0
-85 0 -85 95 0 c95 0 95 0 95 -25 0 -25 0 -25 -95 -25 l-95 0 0 -110 0 -110
-35 0 -35 0 0 243 c0 134 3 247 7 250 9 10 281 9 287 -1z m244 -4 c8 -10 172
-369 199 -435 4 -9 -8 -13 -39 -13 -43 0 -44 1 -65 50 l-21 50 -119 0 -119 0
-21 -50 c-21 -48 -23 -50 -62 -50 -23 0 -41 2 -41 4 0 9 193 432 202 444 6 6
25 12 43 12 18 0 37 -6 43 -12z m720 -13 c91 -55 96 -171 11 -238 l-31 -24 49
-74 c27 -41 53 -80 57 -86 5 -10 -5 -13 -41 -13 l-48 0 -53 80 -52 80 -65 0
-65 0 0 -80 0 -80 -40 0 -40 0 0 223 c0 123 3 227 8 231 4 4 68 6 142 4 113
-2 140 -6 168 -23z m398 17 c6 -4 48 -58 93 -120 l83 -113 86 116 c83 113 111
135 147 121 13 -4 15 -39 15 -231 l0 -225 -41 0 -41 0 4 160 c1 88 2 160 2
160 -1 0 -34 -43 -73 -95 -95 -127 -102 -127 -196 -3 l-70 92 -3 -157 -3 -157
-39 0 -40 0 0 223 c0 123 3 227 7 230 9 9 55 9 69 -1z m373 -598 c20 -8 51
-29 69 -46 l32 -32 -32 -33 -32 -33 -25 24 c-43 40 -86 56 -148 56 -79 0 -126
-27 -121 -72 4 -45 39 -65 154 -87 172 -33 220 -71 212 -166 -6 -66 -34 -106
-95 -136 -63 -30 -179 -37 -256 -15 -52 15 -137 69 -143 91 -2 6 9 26 25 45
l29 34 36 -32 c20 -17 50 -39 66 -47 94 -49 240 -13 240 58 0 39 -32 57 -141
79 -167 32 -229 78 -229 168 0 79 44 128 141 155 63 17 162 12 218 -11z
m-1769 -201 c51 -120 96 -221 99 -225 3 -4 46 94 95 218 l90 224 54 0 c47 0
53 -2 48 -17 -4 -10 -57 -136 -119 -280 l-112 -262 -55 -1 -55 0 -99 228 c-55
125 -110 251 -123 280 l-23 52 54 0 54 0 92 -217z m1048 -57 c67 -150 122
-276 122 -280 0 -4 -23 -6 -51 -4 l-51 3 -26 62 -27 63 -143 0 -143 0 -30 -65
-31 -65 -49 0 -49 0 14 33 c7 17 57 129 111 247 54 118 104 230 111 248 14 30
17 32 67 32 l53 0 122 -274z"/>
<path d="M371 1529 c-13 -11 -29 -19 -36 -19 -19 0 -85 -69 -85 -89 0 -10 -9
-26 -19 -35 -16 -15 -18 -22 -9 -42 8 -16 8 -31 1 -46 -7 -17 -5 -26 10 -41
12 -12 17 -28 14 -42 -3 -18 1 -25 18 -29 12 -3 27 -17 35 -31 8 -15 22 -25
36 -25 13 0 32 -9 43 -21 12 -13 21 -17 26 -10 8 14 62 14 70 1 3 -5 14 -1 25
10 11 11 31 20 43 20 15 0 28 9 35 24 6 13 20 27 31 31 14 4 21 15 21 31 0 13
8 32 18 42 14 14 16 23 9 40 -7 15 -7 30 1 46 9 20 7 27 -9 42 -10 9 -19 27
-19 39 0 13 -9 26 -24 33 -13 6 -27 20 -30 30 -4 13 -19 22 -42 27 -19 3 -37
12 -40 20 -5 11 -11 11 -30 3 -17 -8 -31 -8 -47 -1 -18 8 -28 7 -46 -8z m122
-53 c72 -26 109 -79 109 -156 0 -149 -173 -221 -278 -116 -86 86 -53 231 61
271 50 17 60 18 108 1z"/>
<path d="M407 1453 c-15 -3 -43 -19 -61 -38 -57 -56 -57 -131 -1 -191 58 -61
173 -46 211 28 55 107 -28 218 -149 201z"/>
<path d="M2293 1180 l-41 -90 79 0 c43 0 79 2 79 5 0 4 -70 168 -74 172 -1 2
-21 -38 -43 -87z"/>
<path d="M2860 1220 l0 -70 90 0 c83 0 93 2 115 25 14 13 25 34 25 45 0 12
-11 32 -25 45 -22 23 -32 25 -115 25 l-90 0 0 -70z"/>
<path d="M2922 562 c-24 -53 -46 -103 -49 -109 -4 -10 19 -13 97 -13 56 0 100
3 98 8 -53 123 -94 212 -98 212 -3 -1 -24 -44 -48 -98z"/>
<path d="M1195 1242 c-193 -100 -304 -265 -317 -467 -3 -48 -2 -50 25 -53 25
-3 27 -1 27 35 0 63 28 162 67 235 46 87 130 166 228 213 l74 36 73 -37 c173
-87 273 -241 290 -449 3 -25 8 -31 31 -33 32 -4 33 4 12 123 -31 175 -143 318
-318 404 -45 22 -87 41 -92 41 -6 -1 -50 -22 -100 -48z"/>
<path d="M1226 1173 c-160 -81 -266 -252 -266 -429 0 -37 -4 -47 -20 -51 -22
-6 -28 -51 -7 -57 6 -2 35 -11 62 -21 85 -29 85 -29 85 -6 0 21 1 21 218 19
l217 -3 3 -198 2 -197 75 0 75 0 0 230 c0 190 -2 230 -14 230 -18 0 -26 22
-26 74 0 174 -129 358 -300 430 -34 13 -38 13 -104 -21z m204 -283 l0 -131
-132 3 -133 3 -3 114 c-1 63 0 121 2 128 4 10 37 13 136 13 l130 0 0 -130z"/>
<path d="M1192 948 c3 -43 3 -43 46 -46 l42 -3 0 45 0 46 -46 0 -45 0 3 -42z"/>
<path d="M1310 945 l0 -45 45 0 45 0 0 45 0 45 -45 0 -45 0 0 -45z"/>
<path d="M1190 830 l0 -40 45 0 45 0 0 40 0 40 -45 0 -45 0 0 -40z"/>
<path d="M1310 830 l0 -40 45 0 45 0 0 40 0 40 -45 0 -45 0 0 -40z"/>
<path d="M518 753 c-314 -141 -348 -158 -348 -180 0 -12 2 -23 4 -23 12 0 136
61 141 70 10 16 63 41 99 45 41 6 228 92 239 111 4 7 18 13 30 12 39 -2 168
63 178 90 5 14 8 26 7 27 -2 2 -159 -67 -350 -152z"/>
<path d="M791 794 c-30 -13 -56 -26 -58 -28 -2 -2 6 -23 17 -47 22 -48 25 -94
10 -133 -13 -34 1 -33 39 3 17 16 45 32 61 36 25 5 30 12 30 35 0 22 -5 29
-22 32 -21 3 -23 7 -20 66 1 34 1 62 0 61 -2 0 -28 -11 -57 -25z"/>
<path d="M657 727 c-9 -23 -9 -110 -1 -131 3 -9 10 -16 15 -16 10 0 10 103 0
140 -6 22 -8 23 -14 7z"/>
<path d="M708 662 c2 -46 -3 -86 -15 -127 -23 -74 -45 -88 -123 -81 -38 3 -50
2 -40 -5 8 -5 42 -8 75 -7 l60 3 3 -57 c2 -32 7 -58 12 -58 11 0 11 -2 16 63
6 84 34 109 133 120 30 4 59 11 65 18 11 10 -39 8 -148 -8 -37 -5 -39 -4 -32
18 24 77 28 102 22 133 -4 19 -12 39 -19 44 -10 9 -12 -3 -9 -56z"/>
<path d="M521 672 l-84 -37 -14 -60 c-7 -32 -20 -70 -28 -82 -14 -21 -14 -23
0 -23 8 0 15 6 15 14 0 22 80 58 130 59 25 0 60 -6 78 -15 41 -21 46 -11 21
39 -12 24 -20 62 -21 92 0 28 -3 51 -6 51 -4 0 -45 -17 -91 -38z"/>
<path d="M326 590 c-40 -35 -71 -116 -62 -160 7 -38 -4 -43 -49 -24 -20 8 -53
14 -73 12 -36 -3 -37 -3 -14 -16 13 -8 44 -14 68 -15 24 -1 45 -5 45 -9 1 -5
3 -12 4 -18 1 -5 3 -14 4 -20 0 -5 7 -10 15 -10 9 0 15 20 19 68 6 69 31 142
68 193 26 37 18 37 -25 -1z"/>
<path d="M858 593 c-47 -19 -50 -37 -5 -28 56 11 97 26 97 36 0 14 -51 10 -92
-8z"/>
<path d="M382 588 c-14 -18 -48 -88 -57 -118 -7 -23 -6 -24 9 -11 20 17 50 74
60 114 7 30 4 34 -12 15z"/>
<path d="M1175 555 c37 -32 59 -44 83 -45 25 0 32 4 32 20 0 17 7 20 40 20 22
0 40 -4 40 -10 0 -5 -11 -10 -25 -10 -14 0 -25 -4 -25 -10 0 -5 13 -10 28 -10
20 0 41 13 72 45 l44 45 -169 0 -169 0 49 -45z"/>
<path d="M1427 522 c-32 -32 -54 -61 -51 -65 4 -4 1 -7 -8 -7 -8 0 -22 -8 -31
-18 -16 -18 -13 -23 66 -98 l82 -79 3 83 c2 45 2 118 0 162 l-3 81 -58 -59z"/>
<path d="M1110 567 c0 -18 25 -57 37 -57 20 0 16 14 -12 40 -14 13 -25 21 -25
17z"/>
<path d="M1000 553 c0 -29 24 -83 45 -103 22 -21 25 -21 25 -6 0 22 -50 116
-62 116 -4 0 -8 -3 -8 -7z"/>
<path d="M1068 530 c9 -16 18 -25 20 -20 4 12 -17 50 -28 50 -5 0 -1 -13 8
-30z"/>
<path d="M223 538 c-28 -14 -32 -58 -5 -58 11 0 21 12 28 35 12 38 10 39 -23
23z"/>
<path d="M960 490 c0 -47 -26 -57 -33 -12 -2 15 -5 -26 -6 -91 l-1 -118 28 15
c16 8 50 20 75 27 52 13 62 29 18 29 -28 0 -81 33 -81 51 0 5 13 17 28 27 l29
17 -19 30 c-10 17 -18 38 -18 48 0 9 -4 17 -10 17 -5 0 -10 -18 -10 -40z"/>
<path d="M502 511 c-17 -10 36 -31 79 -31 40 0 44 16 7 29 -37 13 -68 14 -86
2z"/>
<path d="M825 481 l-50 -6 41 -7 c104 -19 70 -101 -51 -124 l-40 -7 52 -17
c28 -9 63 -24 77 -33 14 -10 28 -17 31 -17 3 0 5 50 5 110 0 61 -3 109 -7 108
-5 0 -30 -4 -58 -7z"/>
<path d="M1151 474 c0 -11 3 -14 6 -6 3 7 2 16 -1 19 -3 4 -6 -2 -5 -13z"/>
<path d="M1320 480 c0 -5 4 -10 9 -10 6 0 13 5 16 10 3 6 -1 10 -9 10 -9 0
-16 -4 -16 -10z"/>
<path d="M440 421 l0 -61 60 0 c57 0 60 1 60 24 0 17 -7 26 -25 30 -13 3 -40
20 -60 37 l-35 31 0 -61z"/>
<path d="M1106 450 c-10 -49 -3 -123 12 -128 7 -2 12 6 12 22 0 18 17 44 53
81 60 62 58 74 -3 19 -22 -20 -43 -34 -46 -31 -4 3 -10 21 -14 39 l-7 33 -7
-35z"/>
<path d="M1218 419 l-53 -50 35 5 c39 7 80 46 80 77 0 10 -2 19 -4 19 -3 0
-29 -23 -58 -51z"/>
<path d="M170 450 c14 -4 34 -8 45 -8 l20 -1 -20 9 c-11 5 -31 8 -45 8 l-25 0
25 -8z"/>
<path d="M331 416 c-13 -14 -22 -29 -20 -35 5 -14 84 23 92 43 10 27 -45 20
-72 -8z"/>
<path d="M753 428 c-13 -6 -23 -15 -23 -20 0 -7 55 15 69 28 9 8 -25 2 -46 -8z"/>
<path d="M590 370 l0 -40 -90 0 -90 0 0 26 c0 14 -3 24 -7 22 -27 -13 -61 -27
-76 -32 -25 -8 -14 -22 24 -30 18 -3 51 -16 75 -28 l43 -21 58 25 c32 14 70
29 86 32 24 6 27 11 27 46 0 36 -3 40 -25 40 -22 0 -25 -4 -25 -40z"/>
<path d="M783 395 c-18 -8 -33 -16 -33 -18 0 -8 55 6 75 19 26 19 1 18 -42 -1z"/>
<path d="M1006 392 c-7 -11 16 -22 46 -22 11 0 18 5 16 13 -5 15 -54 22 -62 9z"/>
<path d="M1240 345 c-24 -25 -40 -45 -34 -45 5 0 33 -16 63 -35 48 -32 59 -35
124 -35 l72 0 -80 80 c-44 44 -84 80 -90 80 -6 0 -31 -20 -55 -45z"/>
<path d="M1160 330 c0 -5 4 -10 9 -10 6 0 13 5 16 10 3 6 -1 10 -9 10 -9 0
-16 -4 -16 -10z"/>
<path d="M155 284 c-38 -21 -64 -44 -76 -66 -9 -17 21 -18 608 -18 l618 1 -25
20 c-14 12 -47 32 -74 46 -43 22 -59 25 -121 21 -38 -3 -88 -13 -110 -24 -71
-32 -77 -32 -150 3 -90 43 -171 45 -260 7 -91 -39 -100 -40 -162 -8 -70 35
-199 45 -248 18z"/>
</g>
</svg>
